<svg width="56" height="56" viewBox="0 0 56 56" fill="none" xmlns="http://www.w3.org/2000/svg">
<g filter="url(#filter0_d_101_2)">
<path d="M16.973 28.6975C16.973 31.2682 16.7177 33.5981 16.273 35.7019C14.1306 45.8358 4 41.1264 4 30.7685L4 27.4535C4 16.5042 14.71 12.0623 16.505 22.8635C16.8053 24.6707 16.973 26.6141 16.973 28.6975Z" fill="url(#paint0_linear_101_2)"/>
<path d="M32.1538 27.6757C24.18 27.6755 6.40144 4.00035 25.5384 3.99998C44.6753 3.99961 40.1275 27.6752 32.1538 27.6757Z" fill="url(#paint1_linear_101_2)"/>
<path d="M23.8467 28.3243C31.8204 28.3245 49.599 51.9996 30.4621 52C11.3251 52.0004 15.873 28.3248 23.8467 28.3243Z" fill="url(#paint2_linear_101_2)"/>
<path d="M39.0275 28.6975C39.0275 31.2682 39.2828 33.5981 39.7275 35.7019C41.8698 45.8358 52.0005 41.1264 52.0005 30.7685V27.4535C52.0005 16.5042 41.2904 12.0623 39.4955 22.8635C39.1952 24.6707 39.0275 26.6141 39.0275 28.6975Z" fill="url(#paint3_linear_101_2)"/>
</g>
<defs>
<filter id="filter0_d_101_2" x="-7.62939e-06" y="0" width="56.0005" height="56" filterUnits="userSpaceOnUse" color-interpolation-filters="sRGB">
<feFlood flood-opacity="0" result="BackgroundImageFix"/>
<feColorMatrix in="SourceAlpha" type="matrix" values="0 0 0 0 0 0 0 0 0 0 0 0 0 0 0 0 0 0 127 0" result="hardAlpha"/>
<feOffset/>
<feGaussianBlur stdDeviation="2"/>
<feComposite in2="hardAlpha" operator="out"/>
<feColorMatrix type="matrix" values="0 0 0 0 0 0 0 0 0 0 0 0 0 0 0 0 0 0 0.25 0"/>
<feBlend mode="normal" in2="BackgroundImageFix" result="effect1_dropShadow_101_2"/>
<feBlend mode="normal" in="SourceGraphic" in2="effect1_dropShadow_101_2" result="shape"/>
</filter>
<linearGradient id="paint0_linear_101_2" x1="16.973" y1="28" x2="4" y2="28" gradientUnits="userSpaceOnUse">
<stop stop-color="white"/>
<stop offset="1" stop-color="#522222" stop-opacity="0"/>
</linearGradient>
<linearGradient id="paint1_linear_101_2" x1="28.0005" y1="27.6757" x2="28.0005" y2="3.99998" gradientUnits="userSpaceOnUse">
<stop stop-color="white"/>
<stop offset="1" stop-color="#522222" stop-opacity="0"/>
</linearGradient>
<linearGradient id="paint2_linear_101_2" x1="28" y1="28.3243" x2="28" y2="52" gradientUnits="userSpaceOnUse">
<stop stop-color="white"/>
<stop offset="1" stop-color="#522222" stop-opacity="0"/>
</linearGradient>
<linearGradient id="paint3_linear_101_2" x1="39.0275" y1="28" x2="52.0005" y2="28" gradientUnits="userSpaceOnUse">
<stop stop-color="white"/>
<stop offset="1" stop-color="#522222" stop-opacity="0"/>
</linearGradient>
</defs>
</svg>
