<svg width="48" height="48" viewBox="0 0 48 48" fill="none" xmlns="http://www.w3.org/2000/svg">
<path d="M12.973 24.6975C12.973 27.2682 12.7177 29.5981 12.273 31.7019C10.1306 41.8358 -4.76837e-06 37.1264 -4.76837e-06 26.7685L-4.76837e-06 23.4535C-4.76837e-06 12.5042 10.71 8.06228 12.505 18.8635C12.8053 20.6707 12.973 22.6141 12.973 24.6975Z" fill="url(#paint0_linear_101_2)"/>
<path d="M28.1538 23.6757C20.18 23.6755 2.40144 0.000350456 21.5384 -1.76623e-05C40.6753 -0.000385781 36.1275 23.6752 28.1538 23.6757Z" fill="url(#paint1_linear_101_2)"/>
<path d="M19.8467 24.3243C27.8204 24.3245 45.599 47.9996 26.4621 48C7.32514 48.0004 11.873 24.3248 19.8467 24.3243Z" fill="url(#paint2_linear_101_2)"/>
<path d="M35.0275 24.6975C35.0275 27.2682 35.2828 29.5981 35.7275 31.7019C37.8698 41.8358 48.0005 37.1264 48.0005 26.7685V23.4535C48.0005 12.5042 37.2904 8.06228 35.4955 18.8635C35.1952 20.6707 35.0275 22.6141 35.0275 24.6975Z" fill="url(#paint3_linear_101_2)"/>
<defs>
<linearGradient id="paint0_linear_101_2" x1="12.973" y1="24" x2="-4.76837e-06" y2="24" gradientUnits="userSpaceOnUse">
<stop stop-color="white"/>
<stop offset="1" stop-color="#522222" stop-opacity="0"/>
</linearGradient>
<linearGradient id="paint1_linear_101_2" x1="24.0005" y1="23.6757" x2="24.0005" y2="-1.76623e-05" gradientUnits="userSpaceOnUse">
<stop stop-color="white"/>
<stop offset="1" stop-color="#522222" stop-opacity="0"/>
</linearGradient>
<linearGradient id="paint2_linear_101_2" x1="24" y1="24.3243" x2="24" y2="48" gradientUnits="userSpaceOnUse">
<stop stop-color="white"/>
<stop offset="1" stop-color="#522222" stop-opacity="0"/>
</linearGradient>
<linearGradient id="paint3_linear_101_2" x1="35.0275" y1="24" x2="48.0005" y2="24" gradientUnits="userSpaceOnUse">
<stop stop-color="white"/>
<stop offset="1" stop-color="#522222" stop-opacity="0"/>
</linearGradient>
</defs>
</svg>
